# xmcd
#
# Track frame offsets: 
#        150
#        13580
#        25661
#        38800
#        54062
#        67677
#        79415
#        92462
#        105824
#        124817
#        141622
#        158162
#        169654
#        187446
#        208407
#        226482
#
# Disc length: 3190 seconds
#
# Revision: 0
# Processed by: cddbd v1.5.2PL0 Copyright (c) Steve Scherf et al.
# Submitted via: ExactAudioCopy v0.99pb4
#
DISCID=d00c7410
DTITLE=Sonny Terry and His Mouth Harp, Blind Gary Davis The Singing Reve
DTITLE=rend - The Stinson Collectors Series
DYEAR=1995
DGENRE=Blues
TTITLE0=Don't You Hear Me Calling You Blues
TTITLE1=Silver Fox Chase
TTITLE2=Worried And Lonesome Blues
TTITLE3=Gray Hound Bus Blues
TTITLE4=She Is A Sweet Woman
TTITLE5=South Bound Express
TTITLE6=You Don't Want Me Blues
TTITLE7=Tell Me Little Woman
TTITLE8=I Can't Make This Journey By Myself
TTITLE9=Oh What A Beautiful City
TTITLE10=Jesus Met The Woman At The Well
TTITLE11=You Got To Move
TTITLE12=Bad Company Brought Me Here
TTITLE13=Motherless Children
TTITLE14=Say No To The Devil
TTITLE15=Death Is Riding Everyday
EXTD=
EXTT0=
EXTT1=
EXTT2=
EXTT3=
EXTT4=
EXTT5=
EXTT6=
EXTT7=
EXTT8=
EXTT9=
EXTT10=
EXTT11=
EXTT12=
EXTT13=
EXTT14=
EXTT15=
PLAYORDER=
